<svg width="169" height="194" viewBox="0 0 169 194" fill="none" xmlns="http://www.w3.org/2000/svg">
<g clip-path="url(#clip0_2_5)" filter="url(#filter0_d_2_5)">
<path d="M34.1875 0C39.7533 0 44.25 5.19492 44.25 11.625V23.25H154.938C160.503 23.25 165 28.4449 165 34.875C165 41.3051 160.503 46.5 154.938 46.5H44.25V174.375C44.25 180.805 39.7533 186 34.1875 186C28.6217 186 24.125 180.805 24.125 174.375V46.5H14.0625C8.49668 46.5 4 41.3051 4 34.875C4 28.4449 8.49668 23.25 14.0625 23.25H24.125V11.625C24.125 5.19492 28.6217 0 34.1875 0ZM64.375 58.125H144.875C150.441 58.125 154.938 63.3199 154.938 69.75V127.875C154.938 134.305 150.441 139.5 144.875 139.5H64.375C58.8092 139.5 54.3125 134.305 54.3125 127.875V69.75C54.3125 63.3199 58.8092 58.125 64.375 58.125Z" fill="#688FF5"/>
<path d="M73.3056 102V88H82.2656V90.48H75.9256V93.46H80.8456V95.94H75.9256V99.52H82.4656V102H73.3056ZM86.4528 102.2C85.9195 102.2 85.4328 102.083 84.9928 101.85C84.5528 101.61 84.2028 101.267 83.9428 100.82C83.6828 100.373 83.5528 99.8333 83.5528 99.2C83.5528 98.6333 83.6828 98.15 83.9428 97.75C84.2095 97.3433 84.5561 97.0067 84.9828 96.74C85.4161 96.4667 85.8828 96.2533 86.3828 96.1C86.8895 95.94 87.3861 95.8233 87.8728 95.75C88.3661 95.6767 88.7995 95.6333 89.1728 95.62C89.1461 95.0467 88.9995 94.63 88.7328 94.37C88.4661 94.11 88.0128 93.98 87.3728 93.98C86.9261 93.98 86.4895 94.0433 86.0628 94.17C85.6428 94.29 85.1661 94.48 84.6328 94.74L84.4128 92.72C85.0128 92.4267 85.6128 92.2067 86.2128 92.06C86.8195 91.9133 87.4328 91.84 88.0528 91.84C88.7995 91.84 89.4428 91.9733 89.9828 92.24C90.5228 92.5067 90.9395 92.9367 91.2328 93.53C91.5261 94.1167 91.6728 94.8933 91.6728 95.86V98.56C91.6728 99.06 91.6961 99.4233 91.7428 99.65C91.7895 99.87 91.8761 100.01 92.0028 100.07C92.1295 100.13 92.3128 100.16 92.5528 100.16H92.8728L92.6528 102.2H91.7528C91.3795 102.2 91.0461 102.15 90.7528 102.05C90.4661 101.957 90.2195 101.823 90.0128 101.65C89.8061 101.477 89.6395 101.273 89.5128 101.04C89.1861 101.407 88.7428 101.693 88.1828 101.9C87.6295 102.1 87.0528 102.2 86.4528 102.2ZM87.4928 100.3C87.7128 100.3 87.9861 100.243 88.3128 100.13C88.6395 100.01 88.9328 99.8267 89.1928 99.58V97.3C88.7261 97.32 88.2595 97.3967 87.7928 97.53C87.3261 97.6633 86.9361 97.86 86.6228 98.12C86.3095 98.38 86.1528 98.7067 86.1528 99.1C86.1528 99.5067 86.2595 99.81 86.4728 100.01C86.6861 100.203 87.0261 100.3 87.4928 100.3ZM97.0938 102.2C96.4338 102.2 95.8371 102.137 95.3038 102.01C94.7771 101.883 94.2471 101.7 93.7138 101.46L93.9338 99.34C94.4471 99.64 94.9504 99.8833 95.4438 100.07C95.9438 100.25 96.4671 100.34 97.0138 100.34C97.5071 100.34 97.8838 100.26 98.1437 100.1C98.4038 99.94 98.5338 99.6867 98.5338 99.34C98.5338 99.08 98.4638 98.8667 98.3238 98.7C98.1904 98.5333 97.9871 98.3833 97.7138 98.25C97.4404 98.1167 97.1004 97.9733 96.6938 97.82C96.0804 97.5933 95.5571 97.3467 95.1238 97.08C94.6971 96.8133 94.3704 96.4933 94.1438 96.12C93.9238 95.74 93.8138 95.2733 93.8138 94.72C93.8138 94.1467 93.9638 93.64 94.2638 93.2C94.5638 92.76 94.9904 92.4167 95.5438 92.17C96.0971 91.9233 96.7538 91.8 97.5138 91.8C98.1471 91.8 98.7138 91.87 99.2138 92.01C99.7204 92.15 100.187 92.34 100.614 92.58L100.394 94.7C99.9471 94.3867 99.4971 94.13 99.0438 93.93C98.5904 93.7233 98.0938 93.62 97.5538 93.62C97.1271 93.62 96.7971 93.7067 96.5638 93.88C96.3304 94.0533 96.2138 94.3 96.2138 94.62C96.2138 95.0067 96.3771 95.2967 96.7038 95.49C97.0304 95.6833 97.5538 95.92 98.2738 96.2C98.7404 96.38 99.1438 96.5667 99.4838 96.76C99.8304 96.9533 100.117 97.1667 100.344 97.4C100.57 97.6333 100.737 97.9 100.844 98.2C100.957 98.4933 101.014 98.8333 101.014 99.22C101.014 99.8533 100.86 100.393 100.554 100.84C100.254 101.28 99.8104 101.617 99.2238 101.85C98.6438 102.083 97.9338 102.2 97.0938 102.2ZM103.511 106.84L105.731 101.34L101.571 92H104.331L106.891 98.44L109.491 92H112.251L105.991 106.84H103.511ZM113.579 102V88H118.559C119.632 88 120.539 88.16 121.279 88.48C122.019 88.8 122.579 89.2933 122.959 89.96C123.346 90.6267 123.539 91.48 123.539 92.52C123.539 93.5733 123.349 94.4433 122.969 95.13C122.589 95.81 122.032 96.3167 121.299 96.65C120.566 96.9767 119.672 97.14 118.619 97.14H116.139V102H113.579ZM116.139 95H118.319C119.192 95 119.846 94.8033 120.279 94.41C120.719 94.0167 120.939 93.4 120.939 92.56C120.939 91.72 120.716 91.1067 120.269 90.72C119.829 90.3333 119.159 90.14 118.259 90.14H116.139V95ZM131.713 102.28C130.233 102.28 128.966 101.98 127.913 101.38C126.86 100.773 126.053 99.9233 125.493 98.83C124.933 97.7367 124.653 96.4533 124.653 94.98C124.653 93.52 124.963 92.2467 125.583 91.16C126.21 90.0667 127.073 89.22 128.173 88.62C129.273 88.02 130.54 87.72 131.973 87.72C132.713 87.72 133.42 87.7967 134.093 87.95C134.773 88.1033 135.353 88.3 135.833 88.54L135.553 90.98C135.053 90.7467 134.5 90.5567 133.893 90.41C133.293 90.2567 132.653 90.18 131.973 90.18C130.933 90.18 130.08 90.39 129.413 90.81C128.746 91.2233 128.253 91.79 127.933 92.51C127.613 93.2233 127.453 94.0333 127.453 94.94C127.453 95.8933 127.613 96.7367 127.933 97.47C128.26 98.2033 128.746 98.78 129.393 99.2C130.04 99.6133 130.846 99.82 131.813 99.82C132.106 99.82 132.413 99.8 132.733 99.76C133.06 99.72 133.393 99.6667 133.733 99.6V97.1H131.813V94.98H136.293V101.22C135.806 101.507 135.16 101.757 134.353 101.97C133.553 102.177 132.673 102.28 131.713 102.28Z" fill="black"/>
</g>
<defs>
<filter id="filter0_d_2_5" x="0" y="0" width="169" height="194" filterUnits="userSpaceOnUse" color-interpolation-filters="sRGB">
<feFlood flood-opacity="0" result="BackgroundImageFix"/>
<feColorMatrix in="SourceAlpha" type="matrix" values="0 0 0 0 0 0 0 0 0 0 0 0 0 0 0 0 0 0 127 0" result="hardAlpha"/>
<feOffset dy="4"/>
<feGaussianBlur stdDeviation="2"/>
<feComposite in2="hardAlpha" operator="out"/>
<feColorMatrix type="matrix" values="0 0 0 0 0 0 0 0 0 0 0 0 0 0 0 0 0 0 0.25 0"/>
<feBlend mode="normal" in2="BackgroundImageFix" result="effect1_dropShadow_2_5"/>
<feBlend mode="normal" in="SourceGraphic" in2="effect1_dropShadow_2_5" result="shape"/>
</filter>
<clipPath id="clip0_2_5">
<rect width="161" height="186" fill="white" transform="translate(4)"/>
</clipPath>
</defs>
</svg>
